<svg width="110" height="97" viewBox="0 0 110 97" fill="none" xmlns="http://www.w3.org/2000/svg">
<path d="M23.4958 56.0185C27.7081 51.5641 34.5969 51.5021 38.8823 55.88C43.1678 60.2578 43.227 67.4176 39.0146 71.872C34.8023 76.3264 20.4651 74.899 20.4651 74.899C20.4651 74.899 19.2835 60.4729 23.4958 56.0185Z" fill="#30947F"/>
<path d="M26.1771 42.3751C22.9382 42.3751 20.3125 39.6446 20.3125 36.2759V34.2988H32.0417V36.2759C32.0417 39.6446 29.4161 42.3751 26.1771 42.3751Z" fill="#30947F"/>
<path d="M49.6342 42.3751C46.3953 42.3751 43.7695 39.6446 43.7695 36.2759V34.2988H55.4988V36.2759C55.4988 39.6444 52.8732 42.3751 49.6342 42.3751Z" fill="#30947F"/>
<path d="M73.0912 42.3751C69.8523 42.3751 67.2266 39.6446 67.2266 36.2759V34.2988H78.9558V36.2759C78.9558 39.6444 76.3301 42.3751 73.0912 42.3751Z" fill="#30947F"/>
<path d="M37.1082 25.0547L32.0417 34.2984H20.3125L27.9121 25.0547H37.1082Z" fill="#30947F"/>
<path d="M55.4988 25.0547V34.2984H43.7695L46.3028 25.0547H55.4988Z" fill="#30947F"/>
<path d="M73.8914 25.0547L78.9577 34.2984H67.2284L64.6953 25.0547H73.8914Z" fill="#30947F"/>
<path d="M55.4988 25.0547V34.2984H43.7695L46.3028 25.0547H55.4988Z" fill="#30947F"/>
<path d="M52.3828 56.5524V74.1734C52.3828 75.2348 53.2101 76.0949 54.2304 76.0949H79.0528C80.0732 76.0949 80.9004 75.2348 80.9004 74.1734V56.5524C80.9004 55.4912 80.0732 54.6309 79.0528 54.6309H54.2304C53.2101 54.6309 52.3828 55.4912 52.3828 56.5524Z" fill="#30947F"/>
<path d="M91.316 33.7401L83.8182 24.6207V19.0613C83.8182 16.8131 82.0599 14.9844 79.8987 14.9844H31.1367C28.9755 14.9844 27.2172 16.8131 27.2172 19.0613V24.5764L19.6834 33.7401C19.5691 33.8789 19.5024 34.0573 19.4928 34.2572C19.479 34.506 19.4868 35.693 19.4847 36.276C19.4847 39.6289 21.7762 42.4349 24.8158 43.0903V81.2971H20.6383C20.1816 81.2971 19.8111 81.6824 19.8111 82.1574C19.8111 82.6322 20.1816 83.0177 20.6383 83.0177H87.2622C87.719 83.0177 88.0895 82.6322 88.0895 82.1574C88.0895 81.6824 87.719 81.2971 87.2622 81.2971H86.183V46.0245C86.183 45.5495 85.8125 45.1641 85.3559 45.1641C84.8992 45.1641 84.5287 45.5495 84.5287 46.0245V81.2965H47.3345V62.7448C47.3345 57.565 43.2826 53.3514 38.302 53.3514C33.3216 53.3514 29.2696 57.565 29.2696 62.7448V81.2965H26.4702V43.2204C28.8697 43.1114 30.9461 41.6894 32.0409 39.6224C33.1805 41.7739 35.3815 43.2358 37.9057 43.2358C40.4298 43.2358 42.6308 41.7739 43.7705 39.6224C44.9099 41.7739 47.111 43.2358 49.6351 43.2358C52.159 43.2358 54.3599 41.7739 55.4994 39.6224C56.639 41.7739 58.84 43.2358 61.3642 43.2358C63.8883 43.2358 66.0894 41.7739 67.229 39.6224C68.3684 41.7739 70.5695 43.2358 73.0936 43.2358C75.6175 43.2358 77.8184 41.7739 78.9579 39.6224C80.0975 41.7739 82.2985 43.2358 84.8227 43.2358C88.5129 43.2358 91.5145 40.1138 91.5145 36.276V34.2989C91.5147 34.1338 91.448 33.9004 91.316 33.7401ZM37.5878 25.9156H45.2078C45.1715 26.0479 43.0088 33.9403 43.1463 33.4388H33.4648C33.5451 33.2921 37.801 25.5269 37.5878 25.9156ZM46.928 25.9156H54.6723V33.4388H44.8664C44.9026 33.3064 47.0654 25.414 46.928 25.9156ZM56.3266 25.9156H64.0715C64.1071 26.0459 66.2705 33.9403 66.133 33.4388H56.3266V25.9156ZM67.8532 33.4388C67.8174 33.3083 65.6542 25.414 65.7916 25.9156H73.4109C73.4748 26.032 77.8068 33.9353 77.5345 33.4388H67.8532ZM79.4388 33.4388C79.375 33.3224 75.043 25.419 75.3153 25.9156C75.493 25.9156 82.9113 25.9156 82.7062 25.9156L88.892 33.4388H79.4388ZM28.8716 19.0613C28.8716 17.7619 29.8878 16.705 31.1367 16.705H79.8987C81.1477 16.705 82.1639 17.7619 82.1639 19.0613V24.195C52.8511 24.195 59.0637 24.195 28.8716 24.195V19.0613ZM28.2926 25.9156H35.6836C35.6033 26.0622 31.3475 33.8274 31.5605 33.4388H22.1074L28.2926 25.9156ZM30.924 62.7448C30.924 58.5138 34.2339 55.0721 38.302 55.0721C42.3702 55.0721 45.6802 58.5138 45.6802 62.7448V81.2965H30.924V62.7448ZM26.1767 41.5151C23.3989 41.5151 21.1391 39.165 21.1391 36.276V35.1593H31.2137V36.276C31.2137 39.165 28.954 41.5151 26.1767 41.5151ZM37.9057 41.5151C35.1279 41.5151 32.8681 39.165 32.8681 36.276V35.1593H42.9432V36.276C42.9432 39.165 40.6835 41.5151 37.9057 41.5151ZM49.6353 41.5151C46.8575 41.5151 44.5977 39.165 44.5977 36.276V35.1593H54.6723V36.276C54.6723 39.165 52.4125 41.5151 49.6353 41.5151ZM61.3642 41.5151C58.5863 41.5151 56.3266 39.165 56.3266 36.276V35.1593H66.4017V36.276C66.4017 39.165 64.142 41.5151 61.3642 41.5151ZM73.0938 41.5151C70.3164 41.5151 68.0562 39.165 68.0562 36.276V35.1593H78.1308V36.276C78.1308 39.165 75.871 41.5151 73.0938 41.5151ZM89.8602 36.276C89.8602 39.165 87.6005 41.5151 84.8227 41.5151C82.0449 41.5151 79.7851 39.165 79.7851 36.276V35.1593H89.8602V36.276Z" fill="#111111"/>
<path d="M54.2296 53.7695C52.7545 53.7695 51.5547 55.0173 51.5547 56.5514V74.1724C51.5547 75.7064 52.7545 76.9543 54.2296 76.9543H79.0523C80.5268 76.9543 81.7266 75.7064 81.7266 74.1724V56.5514C81.7266 55.0173 80.5268 53.7695 79.0523 53.7695H54.2296ZM80.0723 56.5514V74.1724C80.0723 74.7576 79.6144 75.2338 79.0523 75.2338H54.2296C53.6669 75.2338 53.209 74.7576 53.209 74.1724V56.5514C53.209 55.9662 53.6669 55.49 54.2296 55.49H79.0523C79.6144 55.49 80.0723 55.9662 80.0723 56.5514Z" fill="#111111"/>
<path d="M42.0382 68.6348C41.5814 68.6348 41.2109 69.0203 41.2109 69.4951V71.1278C41.2109 71.6027 41.5814 71.9882 42.0382 71.9882C42.4948 71.9882 42.8654 71.6027 42.8654 71.1278V69.4951C42.8654 69.0203 42.4948 68.6348 42.0382 68.6348Z" fill="#111111"/>
</svg>
